HIERARCHY
ROOT Root
{
	OFFSET 0.00000 0.00000 0.00000
	CHANNELS 6 Xposition Yposition Zposition Zrotation Xrotation Yrotation
	JOINT Hip
	{
		OFFSET 0 0 0	
		CHANNELS 3 Zrotation Xrotation Yrotation
		JOINT Tummy
		{
			OFFSET 0 0.04 0	
			CHANNELS 3 Zrotation Xrotation Yrotation
			JOINT ChestBottom
			{
				OFFSET 0 0.194 0	
				CHANNELS 3 Zrotation Xrotation Yrotation
				JOINT ChestTop
				{
					OFFSET 0 0.166 0	
					CHANNELS 3 Zrotation Xrotation Yrotation
					JOINT LeftCollar
					{
						OFFSET 0 0.1 0	
						CHANNELS 3 Zrotation Xrotation Yrotation
						JOINT LeftUpperArm
						{
							OFFSET 0.156 -0.02 0.03	
							CHANNELS 3 Zrotation Xrotation Yrotation
							JOINT LeftForeArm
							{
								OFFSET 0.035 -0.27 -0.01	
								CHANNELS 3 Zrotation Xrotation Yrotation
								JOINT LeftHand
								{
									OFFSET 0.01 -0.27 0.01	
									CHANNELS 3 Zrotation Xrotation Yrotation
									End Site
									{
										OFFSET 0 -0.15 0
									}
								}
							}
						}
					}
					JOINT RightCollar
					{
						OFFSET 0 0.1 0	
						CHANNELS 3 Zrotation Xrotation Yrotation
						JOINT RightUpperArm
						{
							OFFSET -0.156 -0.02 0.03	
							CHANNELS 3 Zrotation Xrotation Yrotation
							JOINT RightForeArm
							{
								OFFSET -0.035 -0.27 -0.01	
								CHANNELS 3 Zrotation Xrotation Yrotation
								JOINT RightHand
								{
									OFFSET -0.01 -0.27 0.01	
									CHANNELS 3 Zrotation Xrotation Yrotation
									End Site
									{
										OFFSET 0 -0.15 0
									}
								}
							}
						}
					}
					JOINT Neck
					{
						OFFSET 0 0.1 0	
						CHANNELS 3 Zrotation Xrotation Yrotation
						JOINT Head
						{
							OFFSET 0 0.127 0.03	
							CHANNELS 3 Zrotation Xrotation Yrotation
							End Site
							{
								OFFSET 0 0.127 0.03
							}
						}
					}
				}
			}
		}
	}
	JOINT LeftHip
	{
		OFFSET 0 0 0	
		CHANNELS 3 Zrotation Xrotation Yrotation
		JOINT LeftThigh
		{
			OFFSET 0.088 -0.06 0	
			CHANNELS 3 Zrotation Xrotation Yrotation
			JOINT LeftLowerLeg
			{
				OFFSET 0 -0.39 0.02	
				CHANNELS 3 Zrotation Xrotation Yrotation
				JOINT LeftFootTop
				{
					OFFSET 0 -0.43 -0.02	
					CHANNELS 3 Zrotation Xrotation Yrotation
					JOINT LeftFootFront
					{
						OFFSET 0 -0.07 0.085	
						CHANNELS 3 Zrotation Xrotation Yrotation
						End Site
						{
							OFFSET 0 -0.005 0.09
						}
					}
				}
				JOINT LeftHeel
				{
					OFFSET 0 -0.43 -0.02	
					CHANNELS 3 Zrotation Xrotation Yrotation
					End Site
					{
						OFFSET 0 -0.075 -0.05
					}
				}
			}
		}
	}
	JOINT RightHip
	{
		OFFSET 0 0 0	
		CHANNELS 3 Zrotation Xrotation Yrotation
		JOINT RightThigh
		{
			OFFSET -0.088 -0.06 0	
			CHANNELS 3 Zrotation Xrotation Yrotation
			JOINT RightLowerLeg
			{
				OFFSET 0 -0.39 0.02	
				CHANNELS 3 Zrotation Xrotation Yrotation
				JOINT RightFootTop
				{
					OFFSET 0 -0.43 -0.02	
					CHANNELS 3 Zrotation Xrotation Yrotation
					JOINT RightFootFront
					{
						OFFSET 0 -0.07 0.085	
						CHANNELS 3 Zrotation Xrotation Yrotation
						End Site
						{
							OFFSET 0 -0.005 0.09
						}
					}
				}
				JOINT RightHeel
				{
					OFFSET 0 -0.43 -0.02	
					CHANNELS 3 Zrotation Xrotation Yrotation
					End Site
					{
						OFFSET 0 -0.075 -0.05
					}
				}
			}
		}
	}
}
MOTION
Frames: 21
Frame Time: 0.05
0 0.955 0 -0 0 -0 -0 0 -0 -0 0 -0 0.087853 14.56 -18.539 -0 0 -0 -0 0 -0 30.706 -13.04 8.4321 -163.95 -71.095 -171.1 -0 0 -0 -0 0 -0 -22.681 -47.433 -5.8451 110.49 -1.4552 39.395 -0 0 -0 6.8959 -17.827 15.439 6.8959 -17.827 15.439 -0 0 -0 -0 0 -0 -0 0 -0 -0 0 -0 -0 0 -0 -0 0 -0 -0 0 -0 -0 0 -0 -0 0 -0 -0 0 -0 -0 0 -0 -0 0 -0 
0 0.955 0 -0 0 -0 -0 0 -0 -0 0 -0 -0.0021979 14.441 -18.458 -0 0 -0 -0 0 -0 30.701 -13.085 8.4338 -163.36 -71.185 -170.52 -0 0 -0 -0 0 -0 -22.587 -47.357 -6.1377 110.31 -1.1782 39.13 -0 0 -0 6.9989 -17.769 15.281 6.9989 -17.769 15.281 -0 0 -0 -0 0 -0 -0 0 -0 -0 0 -0 -0 0 -0 -0 0 -0 -0 0 -0 -0 0 -0 -0 0 -0 -0 0 -0 -0 0 -0 -0 0 -0 
0 0.955 0 -0 0 -0 -0 0 -0 -0 0 -0 -0.13913 14.218 -18.38 -0 0 -0 -0 0 -0 30.735 -13.15 8.5223 -162.44 -71.299 -169.61 -0 0 -0 -0 0 -0 -22.438 -47.438 -6.7089 110.03 -0.64639 38.779 -0 0 -0 7.1388 -17.684 15.052 7.1388 -17.685 15.052 -0 0 -0 -0 0 -0 -0 0 -0 -0 0 -0 -0 0 -0 -0 0 -0 -0 0 -0 -0 0 -0 -0 0 -0 -0 0 -0 -0 0 -0 -0 0 -0 
0 0.955 0 -0 0 -0 -0 0 -0 -0 0 -0 -0.25364 13.917 -18.32 -0 0 -0 -0 0 -0 30.73 -13.123 8.5722 -161.56 -71.393 -168.77 -0 0 -0 -0 0 -0 -22.333 -47.222 -6.689 110 -0.59594 38.705 -0 0 -0 7.3097 -17.714 14.711 7.3097 -17.714 14.711 -0 0 -0 -0 0 -0 -0 0 -0 -0 0 -0 -0 0 -0 -0 0 -0 -0 0 -0 -0 0 -0 -0 0 -0 -0 0 -0 -0 0 -0 -0 0 -0 
0 0.955 0 -0 0 -0 -0 0 -0 -0 0 -0 -0.29865 13.741 -18.228 -0 0 -0 -0 0 -0 30.67 -13.162 8.5737 -161.03 -71.41 -168.29 -0 0 -0 -0 0 -0 -22.453 -47.109 -6.9596 110.08 -0.41783 38.498 -0 0 -0 7.5467 -18.168 14.207 7.5467 -18.168 14.207 -0 0 -0 -0 0 -0 -0 0 -0 -0 0 -0 -0 0 -0 -0 0 -0 -0 0 -0 -0 0 -0 -0 0 -0 -0 0 -0 -0 0 -0 -0 0 -0 
0 0.955 0 -0 0 -0 -0 0 -0 -0 0 -0 -0.33131 13.708 -18.134 -0 0 -0 -0 0 -0 30.657 -13.244 8.5402 -160.86 -71.384 -168.15 -0 0 -0 -0 0 -0 -22.597 -47.036 -7.183 110.27 -0.37235 38.346 -0 0 -0 7.7877 -19.092 13.533 7.7877 -19.092 13.533 -0 0 -0 -0 0 -0 -0 0 -0 -0 0 -0 -0 0 -0 -0 0 -0 -0 0 -0 -0 0 -0 -0 0 -0 -0 0 -0 -0 0 -0 -0 0 -0 
0 0.955 0 -0 0 -0 -0 0 -0 -0 0 -0 -0.35812 13.561 -18.125 -0 0 -0 -0 0 -0 30.58 -13.068 8.4381 -160.82 -71.324 -168.12 -0 0 -0 -0 0 -0 -22.515 -46.884 -7.0604 110.44 -0.47343 38.178 -0 0 -0 7.8491 -20.066 12.796 7.8491 -20.066 12.796 -0 0 -0 -0 0 -0 -0 0 -0 -0 0 -0 -0 0 -0 -0 0 -0 -0 0 -0 -0 0 -0 -0 0 -0 -0 0 -0 -0 0 -0 -0 0 -0 
0 0.955 0 -0 0 -0 -0 0 -0 -0 0 -0 -0.39021 13.387 -18.191 -0 0 -0 -0 0 -0 30.533 -12.846 8.3867 -160.8 -71.276 -168.1 -0 0 -0 -0 0 -0 -22.25 -46.734 -6.9699 110.57 -0.39145 37.961 -0 0 -0 7.774 -20.869 12.105 7.774 -20.869 12.105 -0 0 -0 -0 0 -0 -0 0 -0 -0 0 -0 -0 0 -0 -0 0 -0 -0 0 -0 -0 0 -0 -0 0 -0 -0 0 -0 -0 0 -0 -0 0 -0 
0 0.955 0 -0 0 -0 -0 0 -0 -0 0 -0 -0.38576 13.296 -18.241 -0 0 -0 -0 0 -0 30.471 -12.763 8.4175 -160.68 -71.234 -168.04 -0 0 -0 -0 0 -0 -22.147 -46.703 -6.9954 110.8 -0.33261 37.709 -0 0 -0 7.5848 -21.482 11.49 7.5848 -21.482 11.49 -0 0 -0 -0 0 -0 -0 0 -0 -0 0 -0 -0 0 -0 -0 0 -0 -0 0 -0 -0 0 -0 -0 0 -0 -0 0 -0 -0 0 -0 -0 0 -0 
0 0.955 0 -0 0 -0 -0 0 -0 -0 0 -0 -0.35867 13.258 -18.267 -0 0 -0 -0 0 -0 30.396 -12.82 8.483 -160.42 -71.271 -167.82 -0 0 -0 -0 0 -0 -22.119 -46.713 -6.944 111.01 -0.45788 37.645 -0 0 -0 7.3033 -21.824 10.928 7.3033 -21.824 10.928 -0 0 -0 -0 0 -0 -0 0 -0 -0 0 -0 -0 0 -0 -0 0 -0 -0 0 -0 -0 0 -0 -0 0 -0 -0 0 -0 -0 0 -0 -0 0 -0 
0 0.955 0 -0 0 -0 -0 0 -0 -0 0 -0 -0.32211 13.228 -18.291 -0 0 -0 -0 0 -0 30.366 -12.91 8.5348 -160.12 -71.368 -167.59 -0 0 -0 -0 0 -0 -21.951 -46.756 -6.789 111.15 -0.74106 37.718 -0 0 -0 6.9706 -21.933 10.411 6.9706 -21.933 10.411 -0 0 -0 -0 0 -0 -0 0 -0 -0 0 -0 -0 0 -0 -0 0 -0 -0 0 -0 -0 0 -0 -0 0 -0 -0 0 -0 -0 0 -0 -0 0 -0 
0 0.955 0 -0 0 -0 -0 0 -0 -0 0 -0 -0.1877 13.222 -18.359 -0 0 -0 -0 0 -0 30.205 -13.061 8.6547 -159.72 -71.469 -167.29 -0 0 -0 -0 0 -0 -21.768 -46.827 -6.6515 111.36 -1.2161 37.726 -0 0 -0 6.5832 -21.868 9.9795 6.5832 -21.868 9.9795 -0 0 -0 -0 0 -0 -0 0 -0 -0 0 -0 -0 0 -0 -0 0 -0 -0 0 -0 -0 0 -0 -0 0 -0 -0 0 -0 -0 0 -0 -0 0 -0 
0 0.955 0 -0 0 -0 -0 0 -0 -0 0 -0 -0.04731 13.218 -18.444 -0 0 -0 -0 0 -0 30.064 -13.154 8.7653 -159.53 -71.515 -167.11 -0 0 -0 -0 0 -0 -21.47 -46.902 -6.663 111.71 -1.7613 37.425 -0 0 -0 6.2402 -21.685 9.6246 6.2402 -21.685 9.6246 -0 0 -0 -0 0 -0 -0 0 -0 -0 0 -0 -0 0 -0 -0 0 -0 -0 0 -0 -0 0 -0 -0 0 -0 -0 0 -0 -0 0 -0 -0 0 -0 
0 0.955 0 -0 0 -0 -0 0 -0 -0 0 -0 0.041104 13.278 -18.543 -0 0 -0 -0 0 -0 29.943 -13.208 8.8115 -159.66 -71.525 -167.25 -0 0 -0 -0 0 -0 -21.007 -46.983 -6.7999 112.21 -2.3011 37.298 -0 0 -0 6.0029 -21.523 9.3645 6.0029 -21.523 9.3645 -0 0 -0 -0 0 -0 -0 0 -0 -0 0 -0 -0 0 -0 -0 0 -0 -0 0 -0 -0 0 -0 -0 0 -0 -0 0 -0 -0 0 -0 -0 0 -0 
0 0.955 0 -0 0 -0 -0 0 -0 -0 0 -0 0.16837 13.344 -18.655 -0 0 -0 -0 0 -0 29.839 -13.31 8.928 -159.63 -71.57 -167.21 -0 0 -0 -0 0 -0 -20.586 -47.022 -6.8788 112.9 -3.0162 37.246 -0 0 -0 5.8182 -21.422 9.1887 5.8182 -21.422 9.1887 -0 0 -0 -0 0 -0 -0 0 -0 -0 0 -0 -0 0 -0 -0 0 -0 -0 0 -0 -0 0 -0 -0 0 -0 -0 0 -0 -0 0 -0 -0 0 -0 
0 0.955 0 -0 0 -0 -0 0 -0 -0 0 -0 0.35664 13.312 -18.745 -0 0 -0 -0 0 -0 29.589 -13.398 9.0527 -159.27 -71.572 -166.97 -0 0 -0 -0 0 -0 -20.52 -47.056 -7.3404 113.89 -3.5714 36.929 -0 0 -0 5.6434 -21.313 9.062 5.6434 -21.313 9.062 -0 0 -0 -0 0 -0 -0 0 -0 -0 0 -0 -0 0 -0 -0 0 -0 -0 0 -0 -0 0 -0 -0 0 -0 -0 0 -0 -0 0 -0 -0 0 -0 
0 0.955 0 -0 0 -0 -0 0 -0 -0 0 -0 0.47725 13.357 -18.826 -0 0 -0 -0 0 -0 29.494 -13.483 9.1116 -159.19 -71.644 -166.92 -0 0 -0 -0 0 -0 -20.52 -47.26 -7.9055 115.06 -4.2439 36.648 -0 0 -0 5.5873 -21.225 8.971 5.5873 -21.225 8.971 -0 0 -0 -0 0 -0 -0 0 -0 -0 0 -0 -0 0 -0 -0 0 -0 -0 0 -0 -0 0 -0 -0 0 -0 -0 0 -0 -0 0 -0 -0 0 -0 
0 0.955 0 -0 0 -0 -0 0 -0 -0 0 -0 0.55914 13.376 -18.861 -0 0 -0 -0 0 -0 29.409 -13.544 9.1275 -159.27 -71.661 -167.03 -0 0 -0 -0 0 -0 -20.444 -47.451 -8.1114 116.31 -5.453 36.723 -0 0 -0 5.5449 -21.134 8.8638 5.5449 -21.134 8.8638 -0 0 -0 -0 0 -0 -0 0 -0 -0 0 -0 -0 0 -0 -0 0 -0 -0 0 -0 -0 0 -0 -0 0 -0 -0 0 -0 -0 0 -0 -0 0 -0 
0 0.955 0 -0 0 -0 -0 0 -0 -0 0 -0 0.59071 13.494 -18.85 -0 0 -0 -0 0 -0 29.423 -13.721 9.2594 -158.89 -71.702 -166.65 -0 0 -0 -0 0 -0 -20.236 -47.685 -8.487 117.68 -6.8137 37.263 -0 0 -0 5.5226 -21.114 8.7515 5.5226 -21.114 8.7515 -0 0 -0 -0 0 -0 -0 0 -0 -0 0 -0 -0 0 -0 -0 0 -0 -0 0 -0 -0 0 -0 -0 0 -0 -0 0 -0 -0 0 -0 -0 0 -0 
0 0.955 0 -0 0 -0 -0 0 -0 -0 0 -0 0.61674 13.564 -18.866 -0 0 -0 -0 0 -0 29.442 -13.755 9.2803 -158.97 -71.683 -166.78 -0 0 -0 -0 0 -0 -19.913 -47.861 -9.1942 119.21 -7.9429 37.587 -0 0 -0 5.5006 -21.103 8.6715 5.5006 -21.103 8.6715 -0 0 -0 -0 0 -0 -0 0 -0 -0 0 -0 -0 0 -0 -0 0 -0 -0 0 -0 -0 0 -0 -0 0 -0 -0 0 -0 -0 0 -0 -0 0 -0 
0 0.955 0 -0 0 -0 -0 0 -0 -0 0 -0 0.56172 13.611 -18.884 -0 0 -0 -0 0 -0 29.487 -13.764 9.3076 -158.89 -71.706 -166.72 -0 0 -0 -0 0 -0 -19.391 -48.082 -9.9534 120.71 -8.8419 37.689 -0 0 -0 5.5259 -21.103 8.6002 5.5259 -21.103 8.6001 -0 0 -0 -0 0 -0 -0 0 -0 -0 0 -0 -0 0 -0 -0 0 -0 -0 0 -0 -0 0 -0 -0 0 -0 -0 0 -0 -0 0 -0 -0 0 -0 
